PathFileType	4	(X/Y/Z)	/Users/niels/Desktop/University/Third Semester/Perception and Action/Exam/Gymnastics Motion Tracking/Code for Gym Tracking/Scripts/Analyzed Data/Start Salto/st_salto_good_id17_1_Sports2D/st_salto_good_id17_1_Sports2D_px_person00.trc
DataRate	CameraRate	NumFrames	NumMarkers	Units	OrigDataRate	OrigDataStartFrame	OrigNumFrames
29.75	29.75	7	22	m	29.75	105	120
Frame#	Time	Hip			RHip			RKnee			RAnkle			RBigToe			RSmallToe			RHeel			LHip			LKnee			LAnkle			LBigToe			LSmallToe			LHeel			Neck			Head			Nose			RShoulder			RElbow			RWrist			LShoulder			LElbow			LWrist		
		X1	Y1	Z1	X2	Y2	Z2	X3	Y3	Z3	X4	Y4	Z4	X5	Y5	Z5	X6	Y6	Z6	X7	Y7	Z7	X8	Y8	Z8	X9	Y9	Z9	X10	Y10	Z10	X11	Y11	Z11	X12	Y12	Z12	X13	Y13	Z13	X14	Y14	Z14	X15	Y15	Z15	X16	Y16	Z16	X17	Y17	Z17	X18	Y18	Z18	X19	Y19	Z19	X20	Y20	Z20	X21	Y21	Z21	X22	Y22	Z22
105	3.5294117647058822	1.5420025258270813	-0.5096093451917453	0.0	1.5561565483794924	-0.5000566130627518	0.0	1.6894238077589385	-0.5108266862275648	0.0	1.7482531622676005	-0.6182780192091205	0.0	1.806931091214848	-0.6249492379740617	0.0	1.8055001258962422	-0.6318751072530518	0.0	1.7472132402146197	-0.6389032866957267	0.0	1.5300917608687064	-0.5195799837160143	0.0	1.6056808203534836	-0.6224084563947141	0.0	1.6294598045836848	-0.7453483304913222	0.0	1.6762820917497365	-0.7761129109667784	0.0	1.6669985868390902	-0.7742858830269299	0.0	1.6263526327301292	-0.7613517172578192	0.0	1.4716629242924302	-0.35551777192479445	0.0	1.4599138623154497	-0.2745905775395387	0.0	1.4912594703956727	-0.3083120369873973	0.0	1.4874064688323314	-0.36165893062776194	0.0	1.5092183596789417	-0.2832404005234813	0.0	1.5127627025760988	-0.1963201243878004	0.0	1.452353790975183	-0.36562295648774507	0.0	1.4420763981791274	-0.29859172677249485	0.0	1.4307577257224549	-0.24711033993225653	0.0
106	3.5630252100840334	1.558095882388501	-0.5244942476274791	0.0	1.573927421750433	-0.5155174073264421	0.0	1.7018188870952091	-0.5443343892574362	0.0	1.7550210707804923	-0.6574922135337877	0.0	1.8122824897595138	-0.6684368416616726	0.0	1.8095678715855252	-0.6751711511278733	0.0	1.751989831466004	-0.6780780630706513	0.0	1.5437580331834642	-0.5328701882897671	0.0	1.616456768621853	-0.6395007227267338	0.0	1.6297340323504859	-0.7611813272942395	0.0	1.674549915634361	-0.788493923451384	0.0	1.6640795078834392	-0.7864731980321595	0.0	1.6249879186074372	-0.7780650809956253	0.0	1.506510971086752	-0.3631616829251246	0.0	1.5036778983461994	-0.2806920786019103	0.0	1.531374870273856	-0.316648971691747	0.0	1.524553790725724	-0.36863482599070524	0.0	1.5588420812853743	-0.2897147079009179	0.0	1.573437992643114	-0.20344769806333948	0.0	1.485239830844524	-0.37355245759308353	0.0	1.4794894121257456	-0.30737566847856373	0.0	1.4747622198127897	-0.25316730266718246	0.0
107	3.5966386554621845	1.5755368358906998	-0.537836196461848	0.0	1.5933031916774392	-0.5298012678067877	0.0	1.7121562743032337	-0.5785385657284222	0.0	1.761622082092454	-0.6965612523587617	0.0	1.8173217871044525	-0.7104058165582293	0.0	1.8136464540990236	-0.7169916928610013	0.0	1.7573634352548342	-0.7166046196638287	0.0	1.5589864504812894	-0.5445724237389817	0.0	1.6312367228863625	-0.6535314819730842	0.0	1.631252803629095	-0.7725502245435876	0.0	1.6726568580208734	-0.7977676263466422	0.0	1.6612155444172587	-0.7955903246249849	0.0	1.6245641446666077	-0.7897563422263753	0.0	1.5469926465440136	-0.3721854445820391	0.0	1.5552637512472463	-0.29005872595585525	0.0	1.5779749870861504	-0.3277460101610777	0.0	1.5674908203507663	-0.37670666469689185	0.0	1.6156438729128193	-0.30153868109814436	0.0	1.6416545007265748	-0.2204470988597225	0.0	1.523203149722432	-0.3824952670984001	0.0	1.5173719356547921	-0.3213024138134266	0.0	1.5153518231482994	-0.2666228191529279	0.0
108	3.630252100840336	1.5943617992523407	-0.5473253456949919	0.0	1.6140556338665528	-0.5405741381566656	0.0	1.7207005008870961	-0.6096381220471059	0.0	1.7672685450899204	-0.7315709723583654	0.0	1.8214154395524562	-0.7467049042006567	0.0	1.8171087575444116	-0.7531955811553007	0.0	1.762312423728931	-0.7506109065592352	0.0	1.5761548452802092	-0.552733468249685	0.0	1.6499749294466608	-0.6624102015594481	0.0	1.6345552430986359	-0.7767008610724515	0.0	1.6718294681483183	-0.8028906205079268	0.0	1.6598752289077243	-0.8003339217969083	0.0	1.6255872844436237	-0.7932934364549163	0.0	1.5930696266231414	-0.3823980707505954	0.0	1.6137720561553495	-0.30321018249120163	0.0	1.6302736940210731	-0.34204499303361424	0.0	1.6154753081290532	-0.3859242305329072	0.0	1.6770013399269743	-0.3204718607651062	0.0	1.7128107779190302	-0.2506730882930913	0.0	1.5663137168606338	-0.39207763971055865	0.0	1.556279559262472	-0.3421484090387469	0.0	1.553771797035018	-0.28966286072355985	0.0
109	3.6638655462184873	1.614850531679691	-0.550846834799689	0.0	1.6362498899863898	-0.5455942325555523	0.0	1.7290167942684267	-0.6335166647678797	0.0	1.7716297470180113	-0.758501718991616	0.0	1.8238768234019644	-0.7740860150402203	0.0	1.8192234118930533	-0.780407630765325	0.0	1.7661135336391058	-0.7762201438032943	0.0	1.5957878075739587	-0.555510669086964	0.0	1.6713714808255538	-0.6649489528592358	0.0	1.639432445430385	-0.7714883725054881	0.0	1.671830139108435	-0.8022323314539239	0.0	1.6600288839926527	-0.7989776252634493	0.0	1.6279990037490235	-0.7862917442078201	0.0	1.6444707797958067	-0.39370555054585366	0.0	1.6777673180763595	-0.3208331700208083	0.0	1.6870154666677883	-0.3600283930242443	0.0	1.6670946396496429	-0.39653177679210994	0.0	1.7387880289885638	-0.3476077635488146	0.0	1.78059923490513	-0.29589820013204426	0.0	1.614509295231557	-0.4022958918615493	0.0	1.6000808496067391	-0.3709792049698631	0.0	1.5983503332294118	-0.32324703889739675	0.0
110	3.6974789915966384	1.637644381883749	-0.5470806381604912	0.0	1.6604592497651942	-0.5434297801085046	0.0	1.7394999520925538	-0.6471130932655241	0.0	1.7749922526843984	-0.7743170758150728	0.0	1.8245936690458266	-0.7912145924278019	0.0	1.8198729370294315	-0.797043360090264	0.0	1.7687311183546037	-0.7905584321671141	0.0	1.61847829515812	-0.5515624684452295	0.0	1.6929368868293702	-0.6610747050740404	0.0	1.6446429993076948	-0.7557748188482918	0.0	1.6705298028303708	-0.7933545732752733	0.0	1.659644612007129	-0.7892698598373067	0.0	1.6308662485516656	-0.7676123266356809	0.0	1.7000702918271005	-0.40615172050966625	0.0	1.7446513058610758	-0.3435250626128771	0.0	1.7459315888233238	-0.38180663193384995	0.0	1.720111812095098	-0.40878914431381735	0.0	1.7958326142849044	-0.38219312593760485	0.0	1.8383382595069802	-0.3543498669977135	0.0	1.6667553494750023	-0.413288646385488	0.0	1.6523671428829547	-0.4064256039938864	0.0	1.6567781769167842	-0.3680572607160076	0.0
111	3.7310924369747895	1.6637812662903024	-0.5360807513375139	0.0	1.687728312259553	-0.5341316033833365	0.0	1.7539362832397538	-0.6498927906217795	0.0	1.7777018087935852	-0.7779828911109352	0.0	1.823786669196346	-0.7986085838145319	0.0	1.8192984352835002	-0.803440252898973	0.0	1.7703669605343926	-0.7926438696164957	0.0	1.6448614314043524	-0.5405319969643715	0.0	1.7118594254097632	-0.6515247782758444	0.0	1.6484417200477877	-0.7293222323894625	0.0	1.665244660248216	-0.7733082653548796	0.0	1.65597614448074	-0.7686015641489934	0.0	1.6327921574129751	-0.7372927093766696	0.0	1.757405063900642	-0.4198284088278063	0.0	1.8100661137836447	-0.37141697023972436	0.0	1.8035328580344558	-0.40677217984055036	0.0	1.7716470820148207	-0.422774608863824	0.0	1.8432359764999517	-0.4208575936383677	0.0	1.8812740842209428	-0.4190672632892776	0.0	1.7205175147590124	-0.42497315397288105	0.0	1.71214904744621	-0.4434592126042815	0.0	1.7292413830079825	-0.4241977340615006	0.0
